<svg width="370" height="370" viewBox="0 0 370 370" fill="none" xmlns="http://www.w3.org/2000/svg">
<g clip-path="url(#clip0)">
<path d="M146.152 287.456C193.096 287.456 219.88 257.504 219.88 221.792C219.88 220.064 219.88 218.048 219.592 216.32L217.576 216.608C217.864 218.336 217.864 220.064 217.864 221.792C217.864 256.64 191.368 285.44 146.152 285.44C92.008 285.44 82.504 223.232 82.504 180.608C82.504 140 89.704 77.792 145 77.792C190.216 77.792 215.272 106.592 215.272 141.44C215.272 143.168 215.272 144.896 214.984 146.624L217 146.912C217.288 145.184 217.288 143.168 217.288 141.44C217.288 105.728 191.944 75.776 145 75.776C90.856 75.776 51.688 116.096 51.688 180.032C51.688 246.848 90.568 287.456 146.152 287.456Z" fill="white"/>
<path d="M214.58 286H347.602V282.191L243.294 283.949L243.294 77.677H214.58L214.58 286Z" fill="white"/>
</g>
<defs>
<clipPath id="clip0">
<rect width="370" height="370" fill="white" transform="matrix(1 0 0 -1 0 370)"/>
</clipPath>
</defs>
</svg>
