<svg width="370" height="370" viewBox="0 0 370 370" fill="none" xmlns="http://www.w3.org/2000/svg">
<path d="M244.152 287.456C291.096 287.456 317.88 257.504 317.88 221.792C317.88 220.064 317.88 218.048 317.592 216.32L315.576 216.608C315.864 218.336 315.864 220.064 315.864 221.792C315.864 256.64 289.368 285.44 244.152 285.44C190.008 285.44 180.504 223.232 180.504 180.608C180.504 140 187.704 77.792 243 77.792C288.216 77.792 313.272 106.592 313.272 141.44C313.272 143.168 313.272 144.896 312.984 146.624L315 146.912C315.288 145.184 315.288 143.168 315.288 141.44C315.288 105.728 289.944 75.776 243 75.776C188.856 75.776 149.688 116.096 149.688 180.032C149.688 246.848 188.568 287.456 244.152 287.456Z" fill="white"/>
<path d="M178.42 287H45.398V283.191L149.706 284.949L149.706 78.677H178.42L178.42 287Z" fill="white"/>
</svg>
