<svg width="370" height="370" viewBox="0 0 370 370" fill="none" xmlns="http://www.w3.org/2000/svg">
<g clip-path="url(#clip0)">
<path d="M131.488 283.32C99.808 283.32 74.56 273.336 55.744 253.368C36.928 233.4 27.52 208.344 27.52 178.2C27.52 148.056 36.928 123 55.744 103.032C74.56 83.064 99.808 73.08 131.488 73.08C157.408 73.08 178.624 79.32 195.136 91.8C211.648 104.088 222.208 120.408 226.816 140.76H205.504C201.088 125.4 192.544 113.208 179.872 104.184C167.392 95.16 151.264 90.648 131.488 90.648C105.76 90.648 85.408 98.904 70.432 115.416C55.456 131.928 47.968 152.856 47.968 178.2C47.968 203.352 55.456 224.184 70.432 240.696C85.408 257.208 105.76 265.464 131.488 265.464C151.264 265.464 167.392 261.048 179.872 252.216C192.544 243.192 201.088 230.904 205.504 215.352H226.816C222.208 235.704 211.648 252.12 195.136 264.6C178.624 277.08 157.408 283.32 131.488 283.32Z" fill="white"/>
<path d="M224.905 281L224.905 75.9H244.829L244.829 262.248H337.124V281H224.905Z" fill="white"/>
</g>
<defs>
<clipPath id="clip0">
<rect width="370" height="370" fill="white" transform="matrix(1 0 0 -1 0 370)"/>
</clipPath>
</defs>
</svg>
