<svg width="370" height="370" viewBox="0 0 370 370" fill="none" xmlns="http://www.w3.org/2000/svg">
<g clip-path="url(#clip0)">
<path d="M288 64.584V71.496C248.448 70.536 218.688 81.672 198.72 104.904C178.944 128.136 169.056 153.768 169.056 181.8C168.864 209.832 178.656 235.464 198.432 258.696C218.4 281.736 248.256 292.584 288 291.24V298.728C241.152 301.608 206.016 290.568 182.592 265.608C159.36 240.456 147.744 212.52 147.744 181.8C147.744 181.608 147.744 181.512 147.744 181.512C147.744 181.32 147.744 181.128 147.744 180.936C147.744 150.216 159.456 122.376 182.88 97.416C206.304 72.456 241.344 61.512 288 64.584Z" fill="white"/>
<path d="M165 68.312H148.008L148.008 291.8H90.696V299H165L165 68.312Z" fill="white"/>
</g>
<defs>
<clipPath id="clip0">
<rect width="370" height="370" fill="white"/>
</clipPath>
</defs>
</svg>
