<svg width="370" height="370" viewBox="0 0 370 370" fill="none" xmlns="http://www.w3.org/2000/svg">
<path d="M63 40.584V47.496C102.552 46.536 132.312 57.672 152.28 80.904C172.056 104.136 181.944 129.768 181.944 157.8C182.136 185.832 172.344 211.464 152.568 234.696C132.6 257.736 102.744 268.584 63 267.24V274.728C109.848 277.608 144.984 266.568 168.408 241.608C191.64 216.456 203.256 188.52 203.256 157.8C203.256 157.608 203.256 157.512 203.256 157.512C203.256 157.32 203.256 157.128 203.256 156.936C203.256 126.216 191.544 98.376 168.12 73.416C144.696 48.456 109.656 37.512 63 40.584Z" fill="white"/>
<path d="M241.92 92.584V98.92C203.904 97.576 175.392 108.424 156.384 131.464C137.376 154.504 127.872 180.04 127.872 208.072C127.872 235.912 137.28 261.448 156.096 284.68C174.912 307.912 203.136 319.336 240.768 318.952C246.528 318.952 251.328 318.664 255.168 318.088C259.008 317.32 262.656 316.168 266.112 314.632C267.648 313.864 269.184 313.096 270.72 312.328C272.256 311.56 273.888 310.696 275.616 309.736V223.624H293.184V312.616C289.92 314.536 286.752 316.264 283.68 317.8C280.608 319.144 277.536 320.296 274.464 321.256C268.896 323.176 263.328 324.52 257.76 325.288C252.384 326.056 246.72 326.44 240.768 326.44C195.648 326.44 162.528 314.536 141.408 290.728C120.288 266.728 109.728 240.232 109.728 211.24C109.728 211.048 109.728 210.856 109.728 210.664C109.728 210.28 109.728 209.896 109.728 209.512C109.92 180.136 120.192 153.256 140.544 128.872C161.088 104.296 189.888 91.912 226.944 91.72C229.44 91.72 231.936 91.816 234.432 92.008C236.928 92.008 239.424 92.2 241.92 92.584Z" fill="white"/>
</svg>
