<svg width="370" height="370" viewBox="0 0 370 370" fill="none" xmlns="http://www.w3.org/2000/svg">
<path d="M197 61.584V68.496C157.448 67.536 127.688 78.672 107.72 101.904C87.944 125.136 78.056 150.768 78.056 178.8C77.864 206.832 87.656 232.464 107.432 255.696C127.4 278.736 157.256 289.584 197 288.24V295.728C150.152 298.608 115.016 287.568 91.592 262.608C68.36 237.456 56.744 209.52 56.744 178.8C56.744 178.608 56.744 178.512 56.744 178.512C56.744 178.32 56.744 178.128 56.744 177.936C56.744 147.216 68.456 119.376 91.88 94.416C115.304 69.456 150.344 58.512 197 61.584Z" fill="white"/>
<path d="M176.08 62.584V68.92C214.096 67.576 242.608 78.424 261.616 101.464C280.624 124.504 290.128 150.04 290.128 178.072C290.128 205.912 280.72 231.448 261.904 254.68C243.088 277.912 214.864 289.336 177.232 288.952C171.472 288.952 166.672 288.664 162.832 288.088C158.992 287.32 155.344 286.168 151.888 284.632C150.352 283.864 148.816 283.096 147.28 282.328C145.744 281.56 144.112 280.696 142.384 279.736V193.624H124.816V282.616C128.08 284.536 131.248 286.264 134.32 287.8C137.392 289.144 140.464 290.296 143.536 291.256C149.104 293.176 154.672 294.52 160.24 295.288C165.616 296.056 171.28 296.44 177.232 296.44C222.352 296.44 255.472 284.536 276.592 260.728C297.712 236.728 308.272 210.232 308.272 181.24C308.272 181.048 308.272 180.856 308.272 180.664C308.272 180.28 308.272 179.896 308.272 179.512C308.08 150.136 297.808 123.256 277.456 98.872C256.912 74.296 228.112 61.912 191.056 61.72C188.56 61.72 186.064 61.816 183.568 62.008C181.072 62.008 178.576 62.2 176.08 62.584Z" fill="white"/>
<path d="M266 65.312H249.008V166.688H201.2V65.312H184.496V296H201.2V173.312H249.008V296H266V65.312Z" fill="white"/>
<path d="M180 62.108H197.228L197.228 288.7H255.336V296H180L180 62.108Z" fill="white"/>
</svg>
